<svg id="spsLogoDarkNew_svg__Layer_1" x="0" y="0" viewBox="0 0 2000 600" xml:space="preserve" class="objcvr"><style>.spsLogoDarkNew_svg__st1{fill:#e0064b}.spsLogoDarkNew_svg__st2{fill:#f05}.spsLogoDarkNew_svg__st3{fill:#170426}</style><path class="spsLogoDarkNew_svg__st3" d="M1489.5 185.5c-35.3 0-57.5 25.1-57.5 67v38.6c0 42.9 22.2 66.6 57.5 66.6s57.5-23.7 57.5-66.6v-38.6c0-41.9-22.2-67-57.5-67zm0 216.2c-66.6 0-110.6-45.1-110.6-128.8 0-85.9 44-130.6 110.6-130.6s110.6 44.8 110.6 130.6c0 83.7-44 128.8-110.6 128.8zm384.9 0c44.5 0 76.9-13.9 76.9-57.3 0-38.4-19.2-47.3-58.4-53.7l-23.8-3.9c-13.9-2.1-19.2-7.1-19.2-18.1 0-11.7 6.4-16 22.1-16 14.2 0 23.6 5.9 26 15.4.8 3.1 3.7 5.2 6.9 5.2h34.3c4.2 0 7.5-3.6 7.1-7.8-3.5-37.8-33.4-51.3-75.8-51.3-40.9 0-70.8 16-70.8 55.9 0 36.3 17.4 48.7 54.1 54.8l26.3 4.3c14.6 2.5 22.4 3.2 22.4 17.8 0 14.9-12.8 17.8-28.1 17.8-15.7 0-26.6-6.9-30.5-18.2-1-2.9-3.7-4.9-6.8-4.9h-33.4c-4.6 0-8 4.3-6.9 8.8 9.1 37.6 35.2 51.2 77.6 51.2zm-611.5-3.9h43.2c2 0 3.6-1.6 3.6-3.6v-85.7c0-34 20.4-43.6 48.3-44.3 1.9 0 3.5-1.6 3.5-3.6v-43.5c0-2.1-1.7-3.7-3.8-3.6-19.6 1.3-34.9 12.8-45.3 29.6-.8 1.2-2.6.7-2.6-.8v-24.5c0-2.3-2.1-4-4.4-3.5l-43.2 10.1c-1.6.4-2.8 1.8-2.8 3.5v166.2c-.1 2.1 1.5 3.7 3.5 3.7zm-506.8 3.9c26.2 0 38.9-8.4 49.1-30.7.6-1.4 2.7-.9 2.7.6v19c0 3.9 3.2 7.1 7.1 7.1h35.4c3.9 0 7.1-3.2 7.1-7.1V222.4c0-4.6-4.3-8-8.8-7l-35.4 8.2c-3.2.8-5.5 3.6-5.5 7v86.8c0 20.4-8.9 43.9-33.6 43.9-18.6 0-27.5-16.4-27.5-36.8V222.4c0-4.6-4.3-8-8.8-7l-35 8.2c-3.2.8-5.5 3.6-5.5 7v107.2c.1 41.4 21.2 63.9 58.7 63.9zm960.2-187.8c-21.3 0-35.7 7.7-47.7 23.8-.8 1.1-2.6.5-2.6-.9V223c0-4.6-4.3-8-8.8-7l-34.9 8.3c-3.2.8-5.5 3.6-5.5 7v224c0 3.9 3.2 7.1 7.1 7.1h34.9c3.9 0 7.1-3.2 7.1-7.1v-76.4c0-1.4 1.9-2 2.6-.7 10.1 16.2 26.8 23.4 47.6 23.4 47.8 0 69.2-36.7 69.2-83.1v-23.2c.2-46.8-23-81.4-69-81.4zM1734 317c0 24.7-6.8 39.3-32.9 39.3-22.9 0-35-16.1-35-39.3v-19.6c0-25 10-41.4 35-41.4 23.9 0 32.9 17.5 32.9 41.4V317zM983.5 213.7c-22 0-36.8 8.3-49 25.6-.4.6-1.3.3-1.3-.4v-16.2c0-4.6-4.3-8-8.8-7l-34.9 8.3c-3.2.8-5.5 3.6-5.5 7v224c0 3.9 3.2 7.1 7.1 7.1H926c3.9 0 7.1-3.2 7.1-7.1v-79c0-.7 1-1 1.3-.3 9.9 17.8 27.1 25.6 48.9 25.6 47.8 0 69.2-36.7 69.2-83.1V295c.2-46.7-23-81.3-69-81.3zm17.7 103.1c0 24.7-6.8 39.3-32.9 39.3-22.9 0-35-16.1-35-39.3v-19.6c0-25 10-41.4 35-41.4 23.9 0 32.9 17.5 32.9 41.4v19.6zm231.3-18.4c0-50.7-29.5-84.2-79.5-84.2-47.5 0-84.2 25.6-84.2 82.8v23.4c0 52.9 34.9 81.3 82.8 81.3 38.1 0 67.9-14.9 77.5-48.4 1.3-4.6-2.1-9.2-6.8-9.2h-35.9c-2 0-3.8 1-4.8 2.7-3.1 5.7-12.7 11-26 11-16.9 0-29.9-9.4-33.1-24.5-.6-3.5-1.3-7.1-1.7-11.4-.1-.8.6-1.6 1.4-1.6h103.2c3.9 0 7.1-3.2 7.1-7.1v-14.8zm-110.9-8.1c-.8 0-1.4-.7-1.4-1.5.5-19.9 10.5-33.5 32.1-33.5 21.7 0 30.3 12.6 30.7 33.5 0 .8-.6 1.5-1.4 1.5h-60z"/><path class="spsLogoDarkNew_svg__st1" d="M128.3 504.1v-72.3c0-2.7 1.5-5.1 3.9-6.5l263.9-145.8v85c0 3-1.7 5.8-4.4 7.3L140.4 510.6c-5.4 3-12.1-.7-12.1-6.5z"/><path class="spsLogoDarkNew_svg__st2" d="M238.9 270.8 381.3 360s7 3.6 7.2 8.1c.3 4.5-3.7 7.5-3.7 7.5s3.9-2.2 6.9-3.8c2.3-1.3 3.9-3.5 4.3-6.1 0-.3.1-.6.1-.9v-95.6c0-2.6-1.4-5.1-3.7-6.6l-71.3-44.7c-2.6-1.7-6.1-1.7-8.8-.2l-73 40.3c-4.5 2.5-5 9.9-.4 12.8z"/><path class="spsLogoDarkNew_svg__st1" d="M316.6 95.9v72.3c0 2.7-1.5 5.1-3.9 6.5L48.8 320.6v-85c0-3 1.7-5.8 4.4-7.3L304.4 89.4c5.4-3 12.2.7 12.2 6.5z"/><path class="spsLogoDarkNew_svg__st2" d="M206 329.2 63.6 240s-7-3.6-7.2-8.1c-.3-4.5 3.7-7.5 3.7-7.5s-3.9 2.2-6.9 3.8c-2.3 1.3-3.9 3.5-4.3 6.1 0 .3-.1.6-.1.9v95.6c0 2.6 1.4 5.1 3.7 6.6l71.3 44.7c2.6 1.7 6.1 1.7 8.8.2l73-40.3c4.4-2.5 5-9.9.4-12.8z"/><path class="spsLogoDarkNew_svg__st3" d="M593.7 401.7c53.2 0 86.5-20.6 86.5-73.4 0-45.2-24.2-59.7-65.1-75.6l-25.7-10.9c-13.4-5.1-32.2-10.1-32.2-30.7 0-16.6 11.2-25 31.5-25 22.1 0 34 8 36.9 28.2.4 3.6 3.6 6.1 6.9 6.1h35.1c4.3 0 7.6-3.6 7.2-7.6-4.7-46.7-36.9-70.5-86.1-70.5-51.7 0-82.5 27.9-82.5 70.2 0 44.1 25 60.4 62.6 73.4l24.2 8.7c20.3 7.2 35.8 13.4 35.8 35.8 0 22.1-13.7 27.5-35.4 27.5-25.3 0-36.9-6.9-43-31.1-.7-3.3-4-5.4-7.2-5.4H508c-4.3 0-7.7 3.9-6.9 8.3 9.3 49.6 39 72 92.6 72z"/></svg>